<?xml version="1.0" standalone="no"?>
 <!DOCTYPE svg PUBLIC "-//W3C//DTD SVG 1.1//EN" 
 "http://www.w3.org/Graphics/SVG/1.1/DTD/svg11.dtd"> 
<svg
  xmlns:svg="http://www.w3.org/2000/svg"
  xmlns="http://www.w3.org/2000/svg"
  xmlns:xlink="http://www.w3.org/1999/xlink"
  version="1.1"
  width="231.2924mm" height="108.4834mm" viewBox="0.0000 0.0000 231.2924 108.4834">
<title>SVG Image created as oled_unicorny_routed-Edge_Cuts.svg date 2023/05/07 14:38:28 </title>
  <desc>Image generated by PCBNEW </desc>
<g style="fill:#000000; fill-opacity:1.0000;stroke:#000000; stroke-opacity:1.0000;
stroke-linecap:round; stroke-linejoin:round;"
 transform="translate(0 0) scale(1 1)">
</g>
<g style="fill:#000000; fill-opacity:0.0; 
stroke:#000000; stroke-width:0.0000; stroke-opacity:1; 
stroke-linecap:round; stroke-linejoin:round;">
</g>
<g style="fill:#000000; fill-opacity:0.0; 
stroke:#000000; stroke-width:0.1500; stroke-opacity:1; 
stroke-linecap:round; stroke-linejoin:round;">
<path d="M167.2718 86.6593
L167.2737 86.6644
" />
<path d="M107.3918 91.3039
L103.9675 88.4305
" />
<path d="M216.9726 63.8138
L229.6506 60.4168
" />
<path d="M35.8393 1.1118 A1.0000 1.0000 0.0 0 0 34.6145 1.8190" />
<path d="M229.6506 60.4167 A0.9999 0.9999 0.0 0 0 230.3578 59.1920" />
<path d="M0.6064 59.1920 A1.0000 1.0000 0.0 0 0 1.3136 60.4167" />
<path d="M73.9892 9.4189
L74.5715 7.2455
" />
<path d="M73.8644 6.0208
L54.5459 0.8444
" />
<path d="M104.6103 86.6645 A1.0000 1.0000 0.0 0 0 103.9675 88.4305" />
<path d="M31.0035 11.4319
L15.5486 7.2908
" />
<path d="M73.9892 9.4189 A1.0000 1.0000 0.0 0 0 74.6963 10.6436" />
<path d="M167.2737 86.6644
L167.2595 86.6644
" />
<path d="M90.8168 16.1640 A1.0001 1.0001 0.0 0 0 91.5239 17.3888" />
<path d="M195.1250 1.1119
L179.8182 4.8967
" />
<path d="M178.5934 4.1896 A1.0000 1.0000 0.0 0 0 179.8182 4.8967" />
<path d="M140.1060 16.0095
L140.1474 16.1640
" />
<path d="M90.8582 16.0095 A1.0000 1.0000 0.0 0 0 90.1511 14.7847" />
<path d="M198.7360 10.7248 A1.0000 1.0000 0.0 0 0 199.9608 11.4319" />
<path d="M196.3497 1.8190 A1.0000 1.0000 0.0 0 0 195.1250 1.1119" />
<path d="M108.7834 22.0134 A1.0005 1.0005 0.0 0 0 109.0422 22.0475" />
<path d="M1.3136 60.4167
L13.9916 63.8138
" />
<path d="M15.5487 7.2908 A1.0001 1.0001 0.0 0 0 14.3239 7.9979" />
<path d="M156.3927 7.2455
L156.9751 9.4189
" />
<path d="M178.5934 4.1896
L177.6431 1.5515
" />
<path d="M126.9968 88.4305 A1.0000 1.0000 0.0 0 0 126.3540 86.6644" />
<path d="M63.6905 86.6644
L63.6924 86.6593
" />
<path d="M216.8648 63.8364 A97.8500 97.8500 0.0 0 0 167.7271 86.4705" />
<path d="M140.8132 14.7848 A1.0000 1.0000 0.0 0 0 140.1060 16.0095" />
<path d="M63.7048 86.6644
L63.6905 86.6644
" />
<path d="M216.6403 7.9980 A1.0000 1.0000 0.0 0 0 215.4156 7.2908" />
<path d="M34.6145 1.8190
L32.2282 10.7248
" />
<path d="M176.4183 0.8444
L157.0998 6.0208
" />
<path d="M198.7360 10.7248
L196.3497 1.8190
" />
<path d="M109.0422 22.0475
L121.9220 22.0475
" />
<path d="M63.6924 86.6593 A97.8724 97.8724 0.0 0 0 63.2372 86.4705" />
<path d="M94.2530 106.8473 A97.8501 97.8501 0.0 0 0 63.7048 86.6644" />
<path d="M215.4156 7.2908
L199.9608 11.4319
" />
<path d="M51.2941 5.2530
L35.8393 1.1119
" />
<path d="M31.0035 11.4319 A1.0000 1.0000 0.0 0 0 32.2282 10.7248" />
<path d="M123.4491 92.7127
L135.2476 106.7736
" />
<path d="M74.5715 7.2455 A1.0000 1.0000 0.0 0 0 73.8644 6.0208" />
<path d="M167.7271 86.4705 A96.8838 96.8838 0.0 0 0 167.2718 86.6593" />
<path d="M156.2680 10.6436
L140.8131 14.7847
" />
<path d="M123.5724 91.3038 A1.0000 1.0000 0.0 0 0 123.4491 92.7127" />
<path d="M90.1511 14.7847
L74.6963 10.6436
" />
<path d="M63.2372 86.4705 A97.8500 97.8500 0.0 0 0 14.0995 63.8364" />
<path d="M121.9220 22.0475 A0.9998 0.9998 0.0 0 0 122.1808 22.0134" />
<path d="M91.5239 17.3888
L108.7834 22.0134
" />
<path d="M216.6403 7.9979
L230.3578 59.1920
" />
<path d="M167.2595 86.6645 A97.8497 97.8497 0.0 0 0 136.7113 106.8473" />
<path d="M122.1808 22.0134
L139.4403 17.3888
" />
<path d="M177.6431 1.5515 A1.0001 1.0001 0.0 0 0 176.4183 0.8444" />
<path d="M157.0998 6.0207 A1.0000 1.0000 0.0 0 0 156.3927 7.2455" />
<path d="M90.8168 16.1640
L90.8582 16.0095
" />
<path d="M126.3540 86.6644
L104.6103 86.6645
" />
<path d="M53.3212 1.5515
L52.5188 4.5459
" />
<path d="M95.7166 106.7736
L107.5151 92.7127
" />
<path d="M156.2679 10.6436 A1.0000 1.0000 0.0 0 0 156.9751 9.4189" />
<path d="M216.8648 63.8364 A1.0014 1.0014 0.0 0 0 216.9726 63.8138" />
<path d="M126.9968 88.4305
L123.5724 91.3039
" />
<path d="M135.2476 106.7736 A1.0000 1.0000 0.0 0 0 136.7113 106.8473" />
<path d="M107.5151 92.7127 A1.0000 1.0000 0.0 0 0 107.3918 91.3039" />
<path d="M54.5459 0.8444 A1.0000 1.0000 0.0 0 0 53.3212 1.5515" />
<path d="M0.6065 59.1920
L14.3239 7.9979
" />
<path d="M13.9916 63.8138 A1.0000 1.0000 0.0 0 0 14.0995 63.8364" />
<path d="M51.2941 5.2530 A1.0000 1.0000 0.0 0 0 52.5188 4.5459" />
<path d="M94.2530 106.8473 A1.0000 1.0000 0.0 0 0 95.7166 106.7736" />
<path d="M139.4403 17.3887 A1.0000 1.0000 0.0 0 0 140.1474 16.1640" />
<g >
</g>
<g >
</g>
<g >
</g>
<g >
</g>
<g >
</g>
<g >
</g>
<g >
</g>
<g >
</g>
<g >
</g>
<g >
</g>
<g >
</g>
<g >
</g>
<g >
</g>
<g >
</g>
<g >
</g>
<g >
</g>
<g >
</g>
<g >
</g>
<g >
</g>
<g >
</g>
<g >
</g>
<g >
</g>
<g >
</g>
<g >
</g>
<g >
</g>
<g >
</g>
<g >
</g>
<g >
</g>
<g >
</g>
<g >
</g>
<g >
</g>
<g >
</g>
<g >
</g>
<g >
</g>
<g >
</g>
<g >
</g>
<g >
</g>
<g >
</g>
<g >
</g>
<g >
</g>
<g >
</g>
<g >
</g>
<g >
</g>
<g >
</g>
<g >
</g>
<g >
</g>
<g >
</g>
<g >
</g>
<g >
</g>
<g >
</g>
<g >
</g>
<g >
</g>
<g >
</g>
<g >
</g>
<g >
</g>
<g >
</g>
<g >
</g>
<g >
</g>
<g >
</g>
<g >
</g>
<g >
</g>
<g >
</g>
<g >
</g>
<g >
</g>
<g >
</g>
<g >
</g>
<g >
</g>
<g >
</g>
<g >
</g>
<g >
</g>
<g >
</g>
<g >
</g>
<g >
</g>
<g >
</g>
<g >
</g>
<g >
</g>
<g >
</g>
<g >
</g>
<g >
</g>
</g> 
</svg>
